<mxfile host="app.diagrams.net" modified="2023-05-09T07:05:12.019Z" agent="Mozilla/5.0 (Macintosh; Intel Mac OS X 10_15_7) AppleWebKit/537.36 (KHTML, like Gecko) Chrome/113.0.0.0 Safari/537.36" version="21.2.9" etag="6hcwGb8FxSkrMQwVynQx" type="github">
  <diagram name="Halaman-1" id="z_DuEVdo30l38UBPXnRb">
    <mxGraphModel>
      <root>
        <mxCell id="0" />
        <mxCell id="1" parent="0" />
      </root>
    </mxGraphModel>
  </diagram>
</mxfile>
